<?xml version="1.0" standalone="no"?>
<!DOCTYPE svg PUBLIC "-//W3C//DTD SVG 20010904//EN"
 "http://www.w3.org/TR/2001/REC-SVG-20010904/DTD/svg10.dtd">
<svg version="1.0" xmlns="http://www.w3.org/2000/svg"
 width="512.000000pt" height="512.000000pt" viewBox="0 0 512.000000 512.000000"
 preserveAspectRatio="xMidYMid meet">

<g transform="translate(0.000000,512.000000) scale(0.100000,-0.100000)"
fill="#000000" stroke="none">
<path d="M2106 4536 c-30 -9 -61 -26 -81 -47 -33 -33 -195 -303 -195 -325 0
-19 38 -46 61 -42 18 2 42 37 109 153 67 115 93 152 116 162 20 8 92 12 229
13 l200 0 -3 -615 c-1 -416 1 -622 8 -635 13 -23 62 -27 79 -6 8 10 11 182 9
635 l-3 621 202 0 c200 0 202 0 231 -25 16 -13 62 -81 101 -150 65 -112 76
-125 100 -125 31 0 51 16 51 41 0 29 -139 262 -179 300 -27 26 -53 40 -90 48
-78 17 -880 14 -945 -3z" fill="#225c2b"/>
<path d="M1390 3760 c-157 -3 -293 -9 -302 -13 -21 -11 -45 -48 -209 -332
-161 -279 -162 -283 -97 -395 24 -41 95 -164 158 -273 74 -128 125 -207 145
-220 29 -21 41 -22 340 -25 327 -4 365 0 402 40 12 13 90 142 173 287 151 262
152 264 147 315 -4 43 -27 90 -152 306 -81 140 -157 265 -168 277 -19 21 -99
45 -135 41 -9 -1 -145 -5 -302 -8z m399 -65 c37 -39 314 -535 314 -563 0 -28
-276 -518 -314 -557 -19 -19 -35 -20 -329 -23 -255 -2 -314 0 -337 12 -35 18
-333 528 -333 570 0 35 263 497 313 549 l36 38 315 -3 c300 -3 316 -4 335 -23z" fill="#57263c"/>
<path d="M3680 3761 c-240 -5 -290 -9 -310 -22 -14 -9 -58 -74 -99 -145 -237
-410 -241 -417 -241 -456 0 -52 7 -65 172 -347 85 -145 155 -253 171 -265 27
-20 40 -21 362 -21 323 0 334 1 362 21 27 20 261 410 325 541 26 55 28 67 19
95 -6 18 -80 152 -165 298 -110 191 -161 270 -182 282 -40 23 -87 25 -414 19z
m373 -55 c27 -11 54 -52 185 -278 102 -177 152 -275 152 -294 0 -20 -44 -106
-129 -254 -183 -317 -178 -309 -207 -320 -14 -6 -155 -10 -329 -10 -301 0
-304 0 -329 23 -14 12 -86 130 -162 262 -75 132 -141 245 -146 252 -25 31 -10
74 77 225 49 84 118 204 153 266 40 71 73 117 90 127 38 20 597 22 645 1z"  fill="#57263c"/>
<path d="M2523 3100 l-283 -5 -24 -25 c-36 -36 -325 -539 -332 -578 -5 -26 1
-48 28 -100 54 -108 269 -475 292 -501 43 -48 64 -51 388 -51 281 0 304 1 343
20 38 19 53 39 199 292 86 150 160 285 163 300 3 15 0 42 -6 59 -18 51 -299
534 -326 559 -25 24 -83 41 -130 38 -16 -2 -157 -5 -312 -8z m411 -70 c35 -36
316 -531 316 -556 0 -16 -227 -426 -300 -541 -26 -40 -49 -43 -364 -43 -288 0
-305 1 -329 20 -27 22 -318 518 -325 556 -5 28 274 523 320 567 l29 28 314 -3
315 -3 24 -25z"  fill="#57263c"/>
<path d="M1150 2443 c-80 -14 -70 -1 -271 -347 -156 -270 -160 -286 -107 -378
18 -31 89 -154 158 -273 81 -141 136 -225 155 -239 29 -20 42 -21 325 -24 162
-2 314 0 338 3 27 4 54 17 72 33 16 15 97 146 180 291 151 261 152 264 148
315 -4 44 -27 89 -159 315 -92 158 -165 273 -182 285 -27 20 -41 21 -330 22
-166 1 -313 0 -327 -3z m620 -56 c17 -8 67 -85 153 -232 156 -267 189 -333
181 -360 -10 -32 -294 -518 -315 -540 -19 -19 -35 -20 -329 -23 -255 -2 -314
0 -337 12 -35 18 -333 529 -333 570 0 38 298 554 330 571 35 20 612 21 650 2z" fill="#57263c"/>
<path d="M3417 2441 c-21 -5 -47 -17 -57 -27 -17 -17 -264 -436 -312 -528 -41
-80 -23 -121 276 -623 47 -80 38 -78 412 -78 321 0 334 1 360 21 29 21 324
520 345 581 14 42 2 66 -179 378 -110 190 -146 244 -173 260 -32 19 -54 20
-334 22 -165 1 -317 -2 -338 -6z m641 -55 c36 -19 332 -529 332 -572 0 -20
-40 -99 -118 -235 -65 -112 -133 -230 -151 -262 -51 -90 -43 -88 -401 -85
-294 3 -310 4 -329 23 -21 22 -285 479 -307 532 -16 38 -17 37 170 361 88 152
137 227 155 237 38 21 609 22 649 1z" fill="#57263c"/>
<path d="M2271 1780 c-18 -4 -44 -19 -57 -32 -35 -34 -323 -537 -330 -576 -5
-26 1 -48 28 -100 57 -112 269 -475 292 -501 43 -48 64 -51 388 -51 281 0 305
1 343 20 38 18 52 39 187 272 187 323 185 319 172 367 -6 21 -79 157 -163 303
-116 201 -160 269 -184 284 -29 17 -56 19 -337 21 -168 1 -320 -2 -339 -7z
m663 -70 c35 -36 316 -530 316 -556 0 -11 -40 -90 -88 -175 -49 -85 -115 -199
-146 -254 -32 -55 -69 -111 -82 -125 l-24 -25 -315 -3 -314 -3 -30 28 c-35 34
-321 530 -321 558 0 11 17 49 38 85 21 36 89 154 151 263 62 108 125 206 139
217 25 20 37 21 339 18 l313 -3 24 -25z" fill="#57263c"/>
</g>
</svg>
